# xmcd
#
# Track frame offsets: 
#        150
#        29540
#        60771
#        92582
#        136768
#        154806
#        171540
#        210561
#        226889
#        265063
#        314102
#
# Disc length: 4628 seconds
#
# Revision: 0
# Processed by: cddbd v1.5.2PL0 Copyright (c) Steve Scherf et al.
# Submitted via: ExactAudioCopy v1.0b3
#
DISCID=9012120b
DTITLE=Various Artist - The Best In Vocal Trance Vol. 1 - CD 1
DYEAR=1900
DGENRE=
TTITLE0=Above and Beyond - Home (Stoneface and Terminal Rmx)
TTITLE1=Jes - Heaven (Fonzerelli Rmx)
TTITLE2=4 Strings - Catch A Fall (Club Mix)
TTITLE3=DJ Shah Feat. Adrina Thorpe - Who Will Find Me (Main Mix)
TTITLE4=Stoneface and Terminal - Inner Voice (Club Mix)
TTITLE5=Ronski Speed - Love All The Pain Away (Kyau Vs. Albert Rmx)
TTITLE6=Cosmic Gate Feat. Denise Rivera - Body Of Conflict (Xtd Vocal 
TTITLE6=Mix)
TTITLE7=First State Feat. Anita Kelsey - Falling (Radio Edit)
TTITLE8=Terry Ferminal Vs. Mark Sherry - Walk Away (Terry Ferminal Mix
TTITLE8=)
TTITLE9=Andrew Bennett Feat. Kirsty Hawkshaw - Heaven Sent (Vocal Mix)
TTITLE10=Tatana Feat. Stephan Maria - I Can (Duderstadt Uplifting Rmx)
EXTD=
EXTT0=
EXTT1=
EXTT2=
EXTT3=
EXTT4=
EXTT5=
EXTT6=
EXTT7=
EXTT8=
EXTT9=
EXTT10=
PLAYORDER=
